<svg preserveAspectRatio="none" overflow="visible" style="display: block;" width="21.7497" height="21.7502" viewBox="0 0 21.7497 21.7502" fill="none" xmlns="http://www.w3.org/2000/svg">
<g id="elements">
<path id="Shape" d="M2.7861 10.8752H16.9632C18.5661 10.8752 19.1533 11.2459 18.7534 12.8573C18.0479 15.6998 16.0506 16.4058 14.2051 18.2611C13.7565 18.7121 14.4544 19.3784 14.4548 19.8744C14.4556 20.8082 13.5675 20.8752 12.8601 20.8752H6.88925C6.18183 20.8752 5.29373 20.8082 5.29447 19.8744C5.29486 19.3888 5.97186 18.691 5.54422 18.2611C3.69873 16.4058 1.7014 15.6998 0.995939 12.8573C0.596012 11.2459 1.18322 10.8752 2.7861 10.8752Z" stroke="#4C4357" stroke-width="1.75" stroke-linejoin="round"/>
<path id="Vector" d="M17.3747 10.8752C17.3747 9.08413 15.4748 7.86342 13.8747 8.56737M8.87466 5.84039C8.52173 5.3674 8.00718 5.02367 7.41356 4.89235C5.50097 4.46925 3.7757 6.53354 4.58976 8.37408C3.3432 8.51646 2.37466 9.58194 2.37466 10.8752M15.1666 8.35791C15.9479 6.55736 14.2931 4.45934 12.3357 4.89235C11.8595 2.2028 7.88982 2.2028 7.41356 4.89235" stroke="#4C4357" stroke-width="1.75" stroke-linecap="round" stroke-linejoin="round"/>
<path id="Vector_2" d="M15.8747 7.87519L20.8747 1.87519" stroke="#4C4357" stroke-width="1.75" stroke-linecap="round" stroke-linejoin="round"/>
<path id="Vector_3" d="M14.8747 4.87519L16.8747 0.875192" stroke="#4C4357" stroke-width="1.75" stroke-linecap="round" stroke-linejoin="round"/>
</g>
</svg>
