<svg preserveAspectRatio="none" overflow="visible" style="display: block;" width="22" height="21" viewBox="0 0 22 21" fill="none" xmlns="http://www.w3.org/2000/svg">
<g id="elements">
<path id="Vector" d="M7.5 13H14.5M7.5 8H11" stroke="#4C4357" stroke-width="2" stroke-linecap="round" stroke-linejoin="round"/>
<path id="Vector_2" d="M13.1706 19.3905C17.3536 19.1125 20.6856 15.7332 20.9598 11.4909C21.0134 10.6607 21.0134 9.80093 20.9598 8.97072C20.6856 4.72838 17.3536 1.34913 13.1706 1.07107C11.7435 0.976213 10.2536 0.976406 8.8294 1.07107C4.64639 1.34913 1.31441 4.72838 1.04024 8.97072C0.986587 9.80093 0.986587 10.6607 1.04024 11.4909C1.1401 13.036 1.82343 14.4666 2.62791 15.6746C3.09501 16.5203 2.78674 17.5758 2.30021 18.4978C1.94941 19.1626 1.77401 19.495 1.91484 19.7351C2.05568 19.9752 2.37026 19.9829 2.99943 19.9982C4.24367 20.0285 5.08268 19.6757 5.74868 19.1846C6.1264 18.9061 6.31527 18.7668 6.44544 18.7508C6.5756 18.7348 6.83177 18.8403 7.34401 19.0513C7.8044 19.2409 8.33896 19.3579 8.8294 19.3905C10.2536 19.4852 11.7435 19.4854 13.1706 19.3905Z" stroke="#4C4357" stroke-width="2" stroke-linejoin="round"/>
</g>
</svg>
