<svg preserveAspectRatio="none" overflow="visible" style="display: block;" width="12.8568" height="12.2687" viewBox="0 0 12.8568 12.2687" fill="none" xmlns="http://www.w3.org/2000/svg">
<g id="elements">
<path id="Vector" d="M6.03029 0.583401C5.6476 0.832903 5.25796 1.46104 5.25796 2.35143M3.87278 1.24617C3.87278 1.24617 3.49498 1.61459 3.49498 2.35143M7.6497 1.24617C7.45839 1.37092 7.29886 1.98301 7.29886 2.35143" stroke="#2C2935" stroke-width="1.16667" stroke-linecap="round" stroke-linejoin="round"/>
<path id="Shape" d="M8.51644 3.5267C8.75184 3.5267 8.96391 3.52606 9.13908 3.54038C9.32098 3.55525 9.51419 3.58915 9.70362 3.68564C9.97802 3.82545 10.2013 4.04869 10.3411 4.32309C10.4024 4.44354 10.4371 4.56575 10.459 4.68539H11.5049C12.1963 4.68542 12.8671 5.21787 12.8567 6.00701C12.8418 7.13622 12.4972 7.98465 11.9714 8.60011C11.4964 9.15618 10.9028 9.48585 10.357 9.67848C10.3029 9.91892 10.2274 10.1435 10.1183 10.3575C9.78278 11.0161 9.24736 11.5515 8.58879 11.8871C8.18091 12.0949 7.73547 12.1845 7.21306 12.2271C6.69745 12.2693 6.05706 12.2687 5.25 12.2687C4.44295 12.2687 3.80256 12.2693 3.28695 12.2271C2.76454 12.1845 2.3191 12.0949 1.91122 11.8871C1.25265 11.5515 0.717234 11.0161 0.381678 10.3575C0.173869 9.94964 0.0842718 9.50419 0.0415896 8.98178C-0.000528794 8.46618 4.31775e-06 7.82578 4.31775e-06 7.01873V5.51026C4.31775e-06 5.27487 -0.000635925 5.0628 0.0136762 4.88762C0.0285502 4.70573 0.0624463 4.51252 0.15894 4.32309C0.298755 4.04869 0.521988 3.82545 0.796391 3.68564C0.985816 3.58915 1.17903 3.55525 1.36093 3.54038C1.5361 3.52606 1.74817 3.5267 1.98357 3.5267H8.51644ZM10.5 7.01873C10.5 7.51931 10.4985 7.95573 10.4886 8.33806C10.7053 8.20925 10.9097 8.04711 11.0845 7.84246C11.4157 7.45473 11.6784 6.87659 11.69 5.99163C11.6904 5.96106 11.6801 5.93285 11.6507 5.90561C11.6185 5.8757 11.5668 5.85207 11.5049 5.85206H10.5V7.01873Z" fill="#2C2935"/>
</g>
</svg>
