<svg preserveAspectRatio="none" overflow="visible" style="display: block;" width="25.7139" height="24.5376" viewBox="0 0 25.7139 24.5376" fill="none" xmlns="http://www.w3.org/2000/svg">
<g id="elements">
<path id="Vector" d="M12.0605 1.1668C11.2952 1.66581 10.5159 2.92208 10.5159 4.70286M7.74552 2.49234C7.74552 2.49234 6.98993 3.22918 6.98993 4.70286M15.2994 2.49234C14.9168 2.74183 14.5977 3.96602 14.5977 4.70286" stroke="#EDEDED" stroke-width="2.33333" stroke-linecap="round" stroke-linejoin="round"/>
<path id="Vector_2" d="M19.8334 10.5375L23.0097 10.5375C23.8422 10.5375 24.558 11.1663 24.5471 11.9987C24.4942 16.0271 22.1165 17.7049 20.0693 18.3466M3.96667 8.22021H17.0333C18.0134 8.22021 18.5035 8.22021 18.8778 8.41095C19.2071 8.57872 19.4748 8.84644 19.6426 9.17572C19.8333 9.55007 19.8333 10.0401 19.8333 11.0202V14.0376C19.8333 17.3046 19.8333 18.9381 19.1975 20.1859C18.6383 21.2835 17.7459 22.1759 16.6483 22.7351C15.4005 23.3709 13.767 23.3709 10.5 23.3709C7.23303 23.3709 5.59954 23.3709 4.35173 22.7351C3.25411 22.1759 2.36173 21.2835 1.80247 20.1859C1.16667 18.9381 1.16667 17.3046 1.16667 14.0376V11.0202C1.16667 10.0401 1.16667 9.55007 1.35741 9.17572C1.52519 8.84644 1.7929 8.57872 2.12219 8.41095C2.49653 8.22021 2.98658 8.22021 3.96667 8.22021Z" stroke="#EDEDED" stroke-width="2.33333" stroke-linecap="round" stroke-linejoin="round"/>
</g>
</svg>
